<svg width="36" height="36" viewBox="0 0 36 36" fill="none" xmlns="http://www.w3.org/2000/svg">
<circle cx="18" cy="18" r="17.5" transform="rotate(180 18 18)" fill="white" stroke="#B6B6B6"/>
<path d="M15.2729 18.3509L15.2727 18.351C14.998 18.626 14.8437 18.9987 14.8437 19.3874C14.8437 19.776 14.998 20.1488 15.2727 20.4237L15.2729 20.4239L20.3789 25.5295C20.3915 25.5457 20.3983 25.5657 20.3978 25.5864C20.3973 25.6092 20.388 25.6309 20.3719 25.6471C20.3557 25.6632 20.334 25.6725 20.3112 25.6731C20.2905 25.6736 20.2704 25.6669 20.2543 25.6542L15.1454 20.5488L15.1451 20.5485C14.9924 20.3962 14.8713 20.2152 14.7887 20.016C14.7062 19.8168 14.6637 19.6033 14.6639 19.3877L14.6639 19.3839C14.6624 19.1691 14.704 18.9561 14.7862 18.7577C14.8685 18.5592 14.9898 18.3793 15.1428 18.2285L15.1428 18.2285L15.1455 18.2259L20.2595 13.1122C20.2798 13.0936 20.306 13.0827 20.3335 13.0814C20.3435 13.0818 20.3534 13.0839 20.3626 13.0877C20.3728 13.0919 20.3819 13.0981 20.3897 13.1059L20.745 12.7541L20.3894 13.1056C20.4064 13.1228 20.4159 13.146 20.4159 13.1702C20.4159 13.1941 20.4066 13.217 20.39 13.2341C20.3898 13.2343 20.3896 13.2345 20.3894 13.2347L15.2729 18.3509Z" fill="#6A6A6A" stroke="#B6B6B6"/>
</svg>
