<svg width="31" height="31" viewBox="0 0 31 31" fill="none" xmlns="http://www.w3.org/2000/svg">
<path d="M21.1007 2.75769H10.593C6.02879 2.75769 3.30782 5.47848 3.30782 10.0424V20.5369C3.30782 25.1133 6.02879 27.8341 10.593 27.8341H21.0882C25.6524 27.8341 28.3734 25.1133 28.3734 20.5494V10.0424C28.3859 5.47848 25.665 2.75769 21.1007 2.75769ZM24.0349 15.9604L18.6556 21.3393C18.5685 21.4268 18.4649 21.4963 18.3509 21.5436C18.2368 21.591 18.1146 21.6154 17.9911 21.6154C17.8676 21.6154 17.7453 21.591 17.6312 21.5436C17.5172 21.4963 17.4136 21.4268 17.3265 21.3393C17.1516 21.1624 17.0535 20.9236 17.0535 20.6748C17.0535 20.426 17.1516 20.1872 17.3265 20.0103L21.1007 16.2363H8.32344C8.07402 16.2363 7.83482 16.1372 7.65846 15.9608C7.48209 15.7845 7.38301 15.5453 7.38301 15.2959C7.38301 15.0465 7.48209 14.8073 7.65846 14.631C7.83482 14.4546 8.07402 14.3555 8.32344 14.3555H21.1007L17.3265 10.5815C17.2341 10.4954 17.16 10.3916 17.1086 10.2763C17.0572 10.1609 17.0295 10.0364 17.0273 9.91014C17.0251 9.78388 17.0483 9.65846 17.0956 9.54137C17.1429 9.42428 17.2133 9.31791 17.3026 9.22862C17.3919 9.13932 17.4983 9.06893 17.6154 9.02163C17.7325 8.97433 17.8579 8.95111 17.9842 8.95334C18.1105 8.95556 18.235 8.9832 18.3504 9.0346C18.4657 9.08599 18.5695 9.1601 18.6556 9.25249L24.0349 14.6314C24.1224 14.7185 24.1918 14.8221 24.2392 14.9361C24.2866 15.0502 24.311 15.1724 24.311 15.2959C24.311 15.4194 24.2866 15.5417 24.2392 15.6557C24.1918 15.7697 24.1224 15.8733 24.0349 15.9604Z" fill="#00665E"/>
</svg>
