<svg width="36" height="36" viewBox="0 0 36 36" fill="none" xmlns="http://www.w3.org/2000/svg">
<circle cx="18" cy="18" r="17.5" fill="white" stroke="#B6B6B6"/>
<path d="M20.7271 20.424L20.7273 20.4238C21.002 20.1489 21.1563 19.7761 21.1563 19.3875C21.1563 18.9988 21.002 18.6261 20.7273 18.3511L20.7271 18.351L15.6211 13.2453C15.6085 13.2292 15.6017 13.2091 15.6022 13.1885C15.6027 13.1657 15.612 13.1439 15.6281 13.1278C15.6443 13.1116 15.666 13.1023 15.6888 13.1018C15.7095 13.1013 15.7296 13.108 15.7457 13.1206L20.8546 18.2261L20.8549 18.2264C21.0076 18.3787 21.1287 18.5596 21.2112 18.7588C21.2938 18.958 21.3363 19.1715 21.3361 19.3872L21.3361 19.391C21.3376 19.6058 21.296 19.8187 21.2138 20.0172C21.1315 20.2156 21.0102 20.3956 20.8572 20.5463L20.8572 20.5463L20.8545 20.549L15.7405 25.6626C15.7202 25.6813 15.694 25.6922 15.6665 25.6934C15.6565 25.6931 15.6466 25.691 15.6374 25.6871C15.6272 25.6829 15.6181 25.6768 15.6103 25.669L15.255 26.0207L15.6106 25.6693C15.5936 25.6521 15.5841 25.6289 15.5841 25.6047C15.5841 25.5808 15.5934 25.5578 15.61 25.5407C15.6102 25.5405 15.6104 25.5403 15.6106 25.5401L20.7271 20.424Z" fill="#6A6A6A" stroke="#B6B6B6"/>
</svg>
