<svg width="25" height="25" viewBox="0 0 25 25" fill="none" xmlns="http://www.w3.org/2000/svg">
<path d="M12.0625 23.2886C9.92974 23.2886 7.84484 22.6561 6.07149 21.4713C4.29813 20.2865 2.91597 18.6024 2.09979 16.6321C1.2836 14.6618 1.07005 12.4937 1.48614 10.402C1.90223 8.31038 2.92926 6.38905 4.43738 4.88104C5.94549 3.37303 7.86694 2.34606 9.95875 1.93C12.0506 1.51394 14.2188 1.72748 16.1892 2.54361C18.1597 3.35974 19.8438 4.74181 21.0288 6.51504C22.2137 8.28827 22.8461 10.373 22.8461 12.5057C22.8437 15.3647 21.7068 18.106 19.685 20.1277C17.6632 22.1493 14.9218 23.2862 12.0625 23.2886ZM12.0625 3.2274C10.2273 3.2274 8.43335 3.77156 6.90745 4.79107C5.38154 5.81058 4.19224 7.25965 3.48994 8.95504C2.78764 10.6504 2.60389 12.516 2.96191 14.3158C3.31994 16.1156 4.20367 17.7688 5.50135 19.0664C6.79903 20.364 8.45237 21.2477 10.2523 21.6057C12.0522 21.9637 13.9179 21.7799 15.6134 21.0777C17.3089 20.3754 18.7581 19.1862 19.7777 17.6604C20.7972 16.1346 21.3414 14.3408 21.3414 12.5057C21.3385 10.0458 20.36 7.68755 18.6205 5.94817C16.881 4.20879 14.5226 3.23032 12.0625 3.2274Z" fill="#6A6A6A"/>
<path d="M15.7841 16.4477C15.6489 16.4501 15.516 16.4117 15.4029 16.3374L12.2933 14.4817C11.896 14.2236 11.5666 13.8738 11.3327 13.4619C11.0987 13.05 10.9672 12.5879 10.9491 12.1145V8.00196C10.9504 7.80284 11.0301 7.61226 11.1709 7.47146C11.3117 7.33066 11.5023 7.25098 11.7014 7.24966C11.9005 7.25098 12.0911 7.33066 12.2319 7.47146C12.3728 7.61226 12.4524 7.80284 12.4538 8.00196V12.1145C12.4726 12.3269 12.537 12.5327 12.6426 12.7179C12.7482 12.9031 12.8925 13.0634 13.0657 13.1878L16.1753 15.0434C16.2605 15.0939 16.3349 15.1608 16.3941 15.2401C16.4534 15.3195 16.4964 15.4097 16.5206 15.5058C16.5449 15.6018 16.5499 15.7016 16.5354 15.7996C16.5209 15.8976 16.4872 15.9917 16.4362 16.0766C16.368 16.1887 16.2723 16.2817 16.1582 16.3466C16.0441 16.4116 15.9154 16.4463 15.7841 16.4477Z" fill="#6A6A6A"/>
</svg>
