<svg width="25" height="25" viewBox="0 0 25 25" fill="none" xmlns="http://www.w3.org/2000/svg">
<path d="M12.0625 16.9651C11.2035 16.9651 10.3637 16.7104 9.64939 16.2331C8.9351 15.7559 8.37838 15.0776 8.04963 14.284C7.72088 13.4903 7.63486 12.617 7.80246 11.7745C7.97005 10.932 8.38373 10.1581 8.99119 9.55073C9.59864 8.94332 10.3726 8.52967 11.2151 8.36208C12.0577 8.1945 12.931 8.28051 13.7247 8.60924C14.5184 8.93797 15.1968 9.49465 15.674 10.2089C16.1513 10.9231 16.4061 11.7629 16.4061 12.6219C16.4055 13.7736 15.9477 14.878 15.1333 15.6924C14.3188 16.5068 13.2143 16.9646 12.0625 16.9651ZM12.0625 9.78321C11.5011 9.78321 10.9522 9.9497 10.4854 10.2616C10.0185 10.5735 9.65464 11.0169 9.43978 11.5356C9.22491 12.0543 9.16869 12.625 9.27823 13.1757C9.38777 13.7263 9.65814 14.2321 10.0552 14.6291C10.4522 15.0261 10.958 15.2964 11.5087 15.406C12.0594 15.5155 12.6302 15.4593 13.1489 15.2444C13.6676 15.0296 14.111 14.6658 14.4229 14.1989C14.7349 13.7321 14.9014 13.1833 14.9014 12.6219C14.9003 11.8693 14.6009 11.1479 14.0687 10.6158C13.5366 10.0837 12.8151 9.78428 12.0625 9.78321Z" fill="#6A6A6A"/>
<path d="M12.0625 21.6694C8.29074 21.6694 4.72965 19.4627 2.28202 15.631C1.7594 14.7142 1.48456 13.6771 1.48456 12.6219C1.48456 11.5666 1.7594 10.5295 2.28202 9.61269C4.73968 5.78101 8.30579 3.57428 12.0625 3.57428C15.8192 3.57428 19.3853 5.78101 21.8329 9.61269C22.3556 10.5295 22.6304 11.5666 22.6304 12.6219C22.6304 13.6771 22.3556 14.7142 21.8329 15.631C19.3853 19.4627 15.8292 21.6694 12.0625 21.6694ZM12.0625 5.07887C8.8224 5.07887 5.72274 7.0248 3.55599 10.4252C3.18579 11.0982 2.99167 11.8538 2.99167 12.6219C2.99167 13.3899 3.18579 14.1456 3.55599 14.8186C5.72274 18.2189 8.8224 20.1649 12.0625 20.1649C15.3026 20.1649 18.4022 18.2189 20.569 14.8186C20.9392 14.1456 21.1333 13.3899 21.1333 12.6219C21.1333 11.8538 20.9392 11.0982 20.569 10.4252C18.4022 7.0248 15.3026 5.07887 12.0625 5.07887Z" fill="#6A6A6A"/>
</svg>
