<svg width="25" height="24" viewBox="0 0 25 24" fill="none" xmlns="http://www.w3.org/2000/svg">
<path d="M16.517 2H8.447C6.87015 2.00185 5.35844 2.62914 4.24353 3.74424C3.12862 4.85933 2.50159 6.37115 2.5 7.948L2.5 16.018C2.50185 17.5948 3.12914 19.1066 4.24424 20.2215C5.35933 21.3364 6.87115 21.9634 8.448 21.965H16.518C18.0948 21.9631 19.6066 21.3359 20.7215 20.2208C21.8364 19.1057 22.4634 17.5938 22.465 16.017V7.947C22.4631 6.37015 21.8359 4.85844 20.7208 3.74353C19.6057 2.62862 18.0938 2.00159 16.517 2V2ZM20.457 16.017C20.457 16.5344 20.3551 17.0468 20.1571 17.5248C19.9591 18.0028 19.6689 18.4371 19.303 18.803C18.9371 19.1689 18.5028 19.4591 18.0248 19.6571C17.5468 19.8551 17.0344 19.957 16.517 19.957H8.447C7.40222 19.9567 6.40032 19.5415 5.66165 18.8026C4.92297 18.0638 4.508 17.0618 4.508 16.017V7.947C4.50827 6.90222 4.92349 5.90032 5.66235 5.16165C6.40122 4.42297 7.40322 4.008 8.448 4.008H16.518C17.5628 4.00827 18.5647 4.42349 19.3034 5.16235C20.042 5.90122 20.457 6.90322 20.457 7.948V16.018V16.017Z" fill="white"/>
<path d="M12.482 6.81909C11.1134 6.82121 9.80154 7.36588 8.83391 8.3337C7.86627 9.30152 7.32186 10.6135 7.32001 11.9821C7.32159 13.351 7.86603 14.6634 8.83391 15.6315C9.80179 16.5996 11.1141 17.1442 12.483 17.1461C13.8521 17.1445 15.1647 16.5999 16.1328 15.6318C17.1008 14.6637 17.6454 13.3512 17.647 11.9821C17.6449 10.6132 17.0999 9.30098 16.1317 8.33329C15.1634 7.3656 13.8509 6.82141 12.482 6.82009V6.81909ZM12.482 15.1381C11.6452 15.1381 10.8428 14.8057 10.2511 14.214C9.65941 13.6223 9.32701 12.8198 9.32701 11.9831C9.32701 11.1463 9.65941 10.3438 10.2511 9.75217C10.8428 9.16049 11.6452 8.82809 12.482 8.82809C13.3188 8.82809 14.1213 9.16049 14.7129 9.75217C15.3046 10.3438 15.637 11.1463 15.637 11.9831C15.637 12.8198 15.3046 13.6223 14.7129 14.214C14.1213 14.8057 13.3188 15.1381 12.482 15.1381Z" fill="white"/>
<path d="M17.656 8.09509C18.3392 8.09509 18.893 7.54127 18.893 6.85809C18.893 6.17492 18.3392 5.62109 17.656 5.62109C16.9728 5.62109 16.419 6.17492 16.419 6.85809C16.419 7.54127 16.9728 8.09509 17.656 8.09509Z" fill="white"/>
</svg>
