<svg width="33" height="33" viewBox="0 0 33 33" fill="none" xmlns="http://www.w3.org/2000/svg">
<path d="M20.0719 30.7754H12.0469C4.78427 30.7754 1.68127 27.6726 1.68127 20.4105V12.386C1.68127 5.12391 4.78427 2.02112 12.0469 2.02112H20.0719C27.3345 2.02112 30.4375 5.12391 30.4375 12.386V20.4105C30.4375 27.6726 27.3345 30.7754 20.0719 30.7754ZM12.0469 4.02723C5.88102 4.02723 3.68752 6.22058 3.68752 12.386V20.4105C3.68752 26.576 5.88102 28.7693 12.0469 28.7693H20.0719C26.2378 28.7693 28.4313 26.576 28.4313 20.4105V12.386C28.4313 6.22058 26.2378 4.02723 20.0719 4.02723H12.0469Z" fill="#292D32"/>
<path d="M9.2248 30.08C8.9593 30.0782 8.70517 29.972 8.51742 29.7842C8.32968 29.5965 8.22343 29.3424 8.22168 29.0769V3.71961C8.22168 3.45358 8.32737 3.19845 8.51549 3.01034C8.70361 2.82223 8.95876 2.71655 9.2248 2.71655C9.49085 2.71655 9.746 2.82223 9.93412 3.01034C10.1222 3.19845 10.2279 3.45358 10.2279 3.71961V29.0769C10.2281 29.2087 10.2023 29.3392 10.1519 29.461C10.1016 29.5827 10.0277 29.6934 9.93451 29.7866C9.84133 29.8797 9.73068 29.9536 9.60889 30.004C9.48711 30.0543 9.35659 30.0801 9.2248 30.08Z" fill="#292D32"/>
<path d="M22.5998 30.08C22.3343 30.0782 22.0802 29.972 21.8924 29.7842C21.7047 29.5965 21.5984 29.3424 21.5967 29.0769V3.71961C21.5984 3.45412 21.7047 3.20001 21.8924 3.01228C22.0802 2.82455 22.3343 2.71831 22.5998 2.71655C22.8653 2.71831 23.1194 2.82455 23.3072 3.01228C23.4949 3.20001 23.6012 3.45412 23.6029 3.71961V29.0769C23.6031 29.2087 23.5773 29.3392 23.5269 29.461C23.4766 29.5827 23.4027 29.6934 23.3095 29.7866C23.2163 29.8797 23.1057 29.9536 22.9839 30.004C22.8621 30.0543 22.7316 30.0801 22.5998 30.08Z" fill="#292D32"/>
<path d="M9.22481 10.6742H3.40669C3.14119 10.6725 2.88705 10.5662 2.69931 10.3785C2.51157 10.1907 2.40532 9.93663 2.40356 9.67115C2.40532 9.40566 2.51157 9.15155 2.69931 8.96382C2.88705 8.77608 3.14119 8.66984 3.40669 8.66809H9.22481C9.49032 8.66984 9.74445 8.77608 9.93219 8.96382C10.1199 9.15155 10.2262 9.40566 10.2279 9.67115C10.2262 9.93663 10.1199 10.1907 9.93219 10.3785C9.74445 10.5662 9.49032 10.6725 9.22481 10.6742Z" fill="#292D32"/>
<path d="M9.22481 17.4014H2.72456C2.45906 17.3996 2.20492 17.2934 2.01718 17.1057C1.82944 16.9179 1.72319 16.6638 1.72144 16.3983C1.72319 16.1328 1.82944 15.8787 2.01718 15.691C2.20492 15.5033 2.45906 15.397 2.72456 15.3953H9.22481C9.49031 15.397 9.74445 15.5033 9.93219 15.691C10.1199 15.8787 10.2262 16.1328 10.2279 16.3983C10.2262 16.6638 10.1199 16.9179 9.93219 17.1057C9.74445 17.2934 9.49031 17.3996 9.22481 17.4014Z" fill="#292D32"/>
<path d="M9.2248 24.0482H3.32643C3.06092 24.0465 2.80679 23.9402 2.61905 23.7525C2.4313 23.5648 2.32506 23.3107 2.3233 23.0452C2.32506 22.7797 2.4313 22.5256 2.61905 22.3378C2.80679 22.1501 3.06092 22.0439 3.32643 22.0421H9.2248C9.49031 22.0439 9.74444 22.1501 9.93218 22.3378C10.1199 22.5256 10.2262 22.7797 10.2279 23.0452C10.2262 23.3107 10.1199 23.5648 9.93218 23.7525C9.74444 23.9402 9.49031 24.0465 9.2248 24.0482Z" fill="#292D32"/>
<path d="M29.2873 10.6742H23.4692C23.2037 10.6725 22.9496 10.5662 22.7618 10.3785C22.5741 10.1907 22.4678 9.93663 22.4661 9.67115C22.4678 9.40566 22.5741 9.15155 22.7618 8.96382C22.9496 8.77608 23.2037 8.66984 23.4692 8.66809H29.2873C29.5528 8.66984 29.807 8.77608 29.9947 8.96382C30.1824 9.15155 30.2887 9.40566 30.2904 9.67115C30.2887 9.93663 30.1824 10.1907 29.9947 10.3785C29.807 10.5662 29.5528 10.6725 29.2873 10.6742Z" fill="#292D32"/>
<path d="M29.2873 17.4014H22.7871C22.5216 17.3996 22.2674 17.2934 22.0797 17.1057C21.8919 16.9179 21.7857 16.6638 21.7839 16.3983C21.7857 16.1328 21.8919 15.8787 22.0797 15.691C22.2674 15.5033 22.5216 15.397 22.7871 15.3953H29.2873C29.5528 15.397 29.8069 15.5033 29.9947 15.691C30.1824 15.8787 30.2887 16.1328 30.2904 16.3983C30.2887 16.6638 30.1824 16.9179 29.9947 17.1057C29.8069 17.2934 29.5528 17.3996 29.2873 17.4014Z" fill="#292D32"/>
<path d="M22.7068 17.4014H7.99427C7.72877 17.3996 7.47464 17.2934 7.2869 17.1057C7.09915 16.9179 6.9929 16.6638 6.99115 16.3983C6.9929 16.1328 7.09915 15.8787 7.2869 15.691C7.47464 15.5033 7.72877 15.397 7.99427 15.3953H22.7068C22.9728 15.3953 23.228 15.5009 23.4161 15.6891C23.6042 15.8772 23.7099 16.1323 23.7099 16.3983C23.7099 16.6643 23.6042 16.9195 23.4161 17.1076C23.228 17.2957 22.9728 17.4014 22.7068 17.4014Z" fill="#292D32"/>
<path d="M29.2873 24.0482H23.3889C23.1234 24.0465 22.8693 23.9402 22.6815 23.7525C22.4938 23.5648 22.3876 23.3107 22.3858 23.0452C22.3876 22.7797 22.4938 22.5256 22.6815 22.3378C22.8693 22.1501 23.1234 22.0439 23.3889 22.0421H29.2873C29.5528 22.0439 29.8069 22.1501 29.9947 22.3378C30.1824 22.5256 30.2887 22.7797 30.2904 23.0452C30.2887 23.3107 30.1824 23.5648 29.9947 23.7525C29.8069 23.9402 29.5528 24.0465 29.2873 24.0482Z" fill="#292D32"/>
</svg>
