<svg width="25" height="24" viewBox="0 0 25 24" fill="none" xmlns="http://www.w3.org/2000/svg">
<path d="M18.312 5.01711H6.645C4.355 5.01711 2.5 6.85211 2.5 9.11611V14.8841C2.5 17.1481 4.356 18.9841 6.645 18.9841H18.312C20.602 18.9841 22.457 17.1481 22.457 14.8841V9.11611C22.457 6.85211 20.601 5.01611 18.312 5.01611V5.01711ZM15.509 12.2801L10.052 14.8551C10.0187 14.8711 9.98192 14.8785 9.94503 14.8765C9.90815 14.8744 9.87237 14.8631 9.84103 14.8436C9.8097 14.824 9.78382 14.7968 9.7658 14.7646C9.74779 14.7323 9.73822 14.6961 9.738 14.6591V9.35011C9.73867 9.31299 9.74872 9.27663 9.76722 9.24444C9.78573 9.21224 9.81208 9.18526 9.84382 9.16599C9.87556 9.14673 9.91167 9.13581 9.94877 9.13425C9.98587 9.1327 10.0228 9.14057 10.056 9.15711L15.514 11.8921C15.5504 11.9102 15.5809 11.9383 15.602 11.9729C15.6232 12.0076 15.6341 12.0476 15.6336 12.0882C15.6331 12.1288 15.6211 12.1685 15.5991 12.2026C15.577 12.2367 15.5458 12.2639 15.509 12.2811V12.2801Z" fill="white"/>
</svg>
